<?xml version="1.0" encoding="iso-8859-1"?>
<!-- Generator: Adobe Illustrator 19.0.0, SVG Export Plug-In . SVG Version: 6.00 Build 0)  -->
<svg version="1.1" id="Capa_1" xmlns="http://www.w3.org/2000/svg" xmlns:xlink="http://www.w3.org/1999/xlink" x="0px" y="0px"
	 viewBox="0 0 512 512" style="enable-background:new 0 0 512 512;" xml:space="preserve">
<path style="fill:#BF6015;" d="M314.2,7.8C311.499,2.999,306.4,0,301,0H121c-5.4,0-10.499,2.999-13.2,7.8
	c-2.701,5.099-2.401,10.8,0.601,15.601l60,91C171.4,118.599,175.901,121,181,121h60c5.099,0,9.6-2.401,12.599-6.599l60-91
	C316.601,18.6,316.901,12.9,314.2,7.8z"/>
<path style="fill:#994C10;" d="M241,121h-30V0h90c5.4,0,10.499,2.999,13.2,7.8c2.701,5.099,2.401,10.8-0.601,15.601l-60,91
	C250.6,118.599,246.099,121,241,121z"/>
<path style="fill:#BF6015;" d="M406,347v90c0,41.4-33.6,75-75,75H91c-41.4,0-75-33.6-75-75v-90c0-107.401,87.599-196,195-196
	S406,239.599,406,347z"/>
<path style="fill:#994C10;" d="M406,347v90c0,41.4-33.6,75-75,75H211V151C318.401,151,406,239.599,406,347z"/>
<g>
	<path style="fill:#FEA832;" d="M241,91h-60c-24.901,0-45,20.099-45,45s20.099,45,45,45h60c24.901,0,45-20.099,45-45
		S265.901,91,241,91z"/>
	<path style="fill:#FEA832;" d="M496,482c0,16.5-13.5,30-30,30H316c-16.5,0-30-13.5-30-30s13.5-30,30-30h150
		C482.5,452,496,465.5,496,482z"/>
</g>
<path style="fill:#FE9923;" d="M496,482c0,16.5-13.5,30-30,30h-75v-60h75C482.5,452,496,465.5,496,482z"/>
<path style="fill:#FEDB41;" d="M496,422c0,16.5-13.5,30-30,30H316c-16.5,0-30-13.5-30-30s13.5-30,30-30h150
	C482.5,392,496,405.5,496,422z"/>
<path style="fill:#FCBF29;" d="M496,422c0,16.5-13.5,30-30,30h-75v-60h75C482.5,392,496,405.5,496,422z"/>
<path style="fill:#FEA832;" d="M496,362c0,16.5-13.5,30-30,30H316c-16.5,0-30-13.5-30-30s13.5-30,30-30h150
	C482.5,332,496,345.5,496,362z"/>
<path style="fill:#FE9923;" d="M496,362c0,16.5-13.5,30-30,30h-75v-60h75C482.5,332,496,345.5,496,362z"/>
<path style="fill:#FEDB41;" d="M496,302c0,16.5-13.5,30-30,30H316c-16.5,0-30-13.5-30-30s13.5-30,30-30h150
	C482.5,272,496,285.5,496,302z"/>
<path style="fill:#FCBF29;" d="M496,302c0,16.5-13.5,30-30,30h-75v-60h75C482.5,272,496,285.5,496,302z"/>
<path style="fill:#FE9923;" d="M286,136c0,24.901-20.099,45-45,45h-30V91h30C265.901,91,286,111.099,286,136z"/>
<path style="fill:#FEA832;" d="M256,377c0,17.999-10.8,34.501-27.599,41.4c-0.601,0.3-1.5,0.601-2.401,0.899V437
	c0,8.401-6.599,15-15,15s-15-6.599-15-15v-17.701c-7.8-2.699-15.3-6.899-22.2-13.499c-6-5.7-6-15.3-0.3-21.301s15.3-6,21.301-0.3
	c5.4,5.099,11.1,7.8,16.199,7.8c2.1,0,3.9-0.601,5.7-1.199c5.7-2.4,9.3-7.8,9.3-13.8c0-8.401-6.599-15-15-15
	c-24.901,0-45-20.099-45-45c0-18.9,12.001-35.7,29.7-42.299h0.3V257c0-8.401,6.599-15,15-15s15,6.599,15,15v17.401
	c9.901,3.3,19.2,9.899,27.299,19.799c5.402,6.301,4.501,15.601-1.8,21c-6.299,5.4-15.599,4.501-20.999-1.8
	c-6.3-7.5-13.199-11.4-19.5-11.4c-1.8,0-3.6,0.3-5.099,0.901c-6,2.098-9.901,7.798-9.901,14.099c0,8.401,6.599,15,15,15
	C235.901,332,256,352.099,256,377z"/>
<g>
	<path style="fill:#FE9923;" d="M256,377c0,17.999-10.8,34.501-27.599,41.4c-0.601,0.3-1.5,0.601-2.401,0.899V437
		c0,8.401-6.599,15-15,15v-60c2.1,0,3.9-0.601,5.7-1.199C222.4,388.4,226,383,226,377c0-8.401-6.599-15-15-15v-30
		C235.901,332,256,352.099,256,377z"/>
	<path style="fill:#FE9923;" d="M230.501,313.4C224.2,305.9,217.301,302,211,302v-60c8.401,0,15,6.599,15,15v17.401
		c9.901,3.3,19.2,9.899,27.299,19.799c5.402,6.301,4.501,15.601-1.8,21C245.2,320.6,235.901,319.701,230.501,313.4z"/>
</g>
<g>
</g>
<g>
</g>
<g>
</g>
<g>
</g>
<g>
</g>
<g>
</g>
<g>
</g>
<g>
</g>
<g>
</g>
<g>
</g>
<g>
</g>
<g>
</g>
<g>
</g>
<g>
</g>
<g>
</g>
</svg>
